<svg xmlns="http://www.w3.org/2000/svg" width="420" height="420" viewBox="0 0 420 420" role="img" aria-label="Konfigurera PUBLIC_GAME_URL innan QR-koden används">
	<rect width="420" height="420" rx="24" fill="#ffffff"/>
	<rect x="24" y="24" width="372" height="372" rx="18" fill="#f3f6f4" stroke="#d6ddd7"/>
	<rect x="58" y="58" width="86" height="86" rx="10" fill="#1a7e34"/>
	<rect x="70" y="70" width="62" height="62" rx="6" fill="#ffffff"/>
	<rect x="82" y="82" width="38" height="38" rx="4" fill="#1a7e34"/>
	<rect x="276" y="58" width="86" height="86" rx="10" fill="#1a7e34"/>
	<rect x="288" y="70" width="62" height="62" rx="6" fill="#ffffff"/>
	<rect x="300" y="82" width="38" height="38" rx="4" fill="#1a7e34"/>
	<rect x="58" y="276" width="86" height="86" rx="10" fill="#1a7e34"/>
	<rect x="70" y="288" width="62" height="62" rx="6" fill="#ffffff"/>
	<rect x="82" y="300" width="38" height="38" rx="4" fill="#1a7e34"/>
	<text x="210" y="190" text-anchor="middle" font-family="Arial, sans-serif" font-size="24" font-weight="700" fill="#1a7e34">QR ej klar</text>
	<text x="210" y="222" text-anchor="middle" font-family="Arial, sans-serif" font-size="16" fill="#33413a">Kör build:fair med</text>
	<text x="210" y="246" text-anchor="middle" font-family="Arial, sans-serif" font-size="16" font-weight="700" fill="#33413a">PUBLIC_GAME_URL</text>
	<text x="210" y="286" text-anchor="middle" font-family="Arial, sans-serif" font-size="14" fill="#55635b">Exempel:</text>
	<text x="210" y="308" text-anchor="middle" font-family="Arial, sans-serif" font-size="14" fill="#55635b">https://cargoquest.lbcfrakt.se/</text>
</svg>
